<?xml version="1.0"?>
<svg xmlns="http://www.w3.org/2000/svg" viewBox="0 0 64 64" width="512" height="512"><circle cx="30" cy="32" r="26" fill="#b51040"/><path d="M30,58.5A26.5,26.5,0,1,1,56.5,32,26.53,26.53,0,0,1,30,58.5Zm0-52A25.5,25.5,0,1,0,55.5,32,25.529,25.529,0,0,0,30,6.5Z" fill="#212a41"/><circle cx="34" cy="32" r="22" fill="#e0e0e0"/><path d="M34,54.5A22.5,22.5,0,1,1,56.5,32,22.525,22.525,0,0,1,34,54.5Zm0-44A21.5,21.5,0,1,0,55.5,32,21.525,21.525,0,0,0,34,10.5Z" fill="#212a41"/><path d="M34,52.5a.5.5,0,0,1,0-1A19.523,19.523,0,0,0,53.5,32a.5.5,0,0,1,1,0A20.523,20.523,0,0,1,34,52.5Z" fill="#c2c2c2"/><path d="M14,32.5a.5.5,0,0,1-.5-.5A20.523,20.523,0,0,1,34,11.5a.5.5,0,0,1,0,1A19.523,19.523,0,0,0,14.5,32,.5.5,0,0,1,14,32.5Z" fill="#fefefe"/><path d="M34,6A26,26,0,1,0,60,32,26,26,0,0,0,34,6Zm0,4a21.9,21.9,0,0,1,13.289,4.469l-30.82,30.82A22,22,0,0,1,34,10Zm0,44a21.9,21.9,0,0,1-13.289-4.469l30.82-30.82A22,22,0,0,1,34,54Z" fill="#d32e5e"/><path d="M34,58.5A26.5,26.5,0,1,1,60.5,32,26.53,26.53,0,0,1,34,58.5Zm0-52A25.5,25.5,0,1,0,59.5,32,25.529,25.529,0,0,0,34,6.5Zm0,48a22.3,22.3,0,0,1-13.591-4.571.5.5,0,0,1-.051-.752L51.177,18.358a.506.506,0,0,1,.388-.146.5.5,0,0,1,.364.2A22.5,22.5,0,0,1,34,54.5ZM21.476,49.474A21.294,21.294,0,0,0,34,53.5,21.525,21.525,0,0,0,55.5,32a21.294,21.294,0,0,0-4.026-12.524Zm-5.007-3.685h-.034a.5.5,0,0,1-.364-.2,22.5,22.5,0,0,1,31.52-31.52.5.5,0,0,1,.051.752L16.823,45.642A.5.5,0,0,1,16.469,45.789ZM34,10.5A21.525,21.525,0,0,0,12.5,32a21.294,21.294,0,0,0,4.026,12.524l30-30A21.294,21.294,0,0,0,34,10.5Z" fill="#212a41"/><path d="M44,29.5H25l-2.4-3.2a2,2,0,0,0-1.6-.8H20v8a1,1,0,0,0,1,1H47a1,1,0,0,0,1-1h0A4,4,0,0,0,44,29.5Z" fill="#e0e0e0"/><path d="M47,35H21a1.5,1.5,0,0,1-1.5-1.5v-8A.5.5,0,0,1,20,25h1a2.514,2.514,0,0,1,2,1l2.25,3H44a4.505,4.505,0,0,1,4.5,4.5A1.5,1.5,0,0,1,47,35ZM20.5,26v7.5a.5.5,0,0,0,.5.5H47a.5.5,0,0,0,.5-.5A3.5,3.5,0,0,0,44,30H25a.5.5,0,0,1-.4-.2l-2.4-3.2A1.506,1.506,0,0,0,21,26Z" fill="#212a41"/><path d="M30.343,41.5H27l7-7h5l-5.828,5.828A4,4,0,0,1,30.343,41.5Z" fill="#0079a8"/><path d="M30.343,42H27a.5.5,0,0,1-.354-.854l7-7A.5.5,0,0,1,34,34h5a.5.5,0,0,1,.354.854l-5.829,5.828A4.47,4.47,0,0,1,30.343,42Zm-2.136-1h2.136a3.477,3.477,0,0,0,2.475-1.025L37.793,35H34.207Z" fill="#212a41"/><path d="M30.343,22.5H27l7,7h5l-5.828-5.828A4,4,0,0,0,30.343,22.5Z" fill="#0079a8"/><path d="M39,30H34a.5.5,0,0,1-.354-.146l-7-7A.5.5,0,0,1,27,22h3.343a4.47,4.47,0,0,1,3.182,1.318l5.829,5.828A.5.5,0,0,1,39,30Zm-4.793-1h3.586l-4.975-4.975A3.477,3.477,0,0,0,30.343,23H28.207Z" fill="#212a41"/></svg>
