<svg height="512" viewBox="0 0 512 512" width="512" xmlns="http://www.w3.org/2000/svg"><g id="Filled_outline" data-name="Filled outline"><rect fill="#f35244" height="256" rx="24" width="128" x="24" y="216"/><path d="m152 243.14v204.86a24.006 24.006 0 0 1 -24 24h-80a24.006 24.006 0 0 1 -24-24v-6.92c46.4-36.55 98.43-97.73 128-197.94z" fill="#ea4a3b"/><g fill="#4d5e78"><circle cx="88" cy="144" r="16"/><rect height="56" rx="16" width="32" x="24" y="432"/><rect height="56" rx="16" width="32" x="120" y="432"/></g><circle cx="416" cy="112" fill="#f35244" r="72"/><circle cx="416" cy="112" fill="#d6d6d4" r="56"/><circle cx="416" cy="112" fill="#e0e0de" r="40"/><path d="m344.8 328h-36.93a11.2 11.2 0 0 1 -10.625-14.742l23.439-70.318a16 16 0 0 1 15.179-10.94h36.928a11.2 11.2 0 0 1 10.626 14.742l-23.44 70.318a16 16 0 0 1 -15.177 10.94z" fill="#4db7e5"/><path d="m297.377 320.586a11.142 11.142 0 0 0 10.493 7.414h36.93a16 16 0 0 0 15.18-10.94l23.439-70.318a11.016 11.016 0 0 0 -.061-7.077z" fill="#48add9"/><path d="m216 304 8 32-48 16s-24-64-24-104v-32h88l16 48-16 4v12a24 24 0 0 1 -24 24z" fill="#fec9a3"/><path d="m240 176h-48a40 40 0 0 0 -40 40v40l32-40h56a20 20 0 0 0 0-40z" fill="#ffb531"/><path d="m269 337.885a52.961 52.961 0 0 0 -88.01 58.915l35.879 55.449a78.234 78.234 0 0 0 56.622 35.175l38.509-87.424z" fill="#ffb531"/><path d="m481.039 459.359-17.039-11.359h-51.429l11.429 40h48.367a15.634 15.634 0 0 0 8.672-28.641z" fill="#4d5e78"/><path d="m441.426 352.06a51.962 51.962 0 0 0 -50.58-40.06 51.96 51.96 0 0 0 -45.617 27.08l-33.229 60.92-38.509 87.426a77.677 77.677 0 0 0 77.044-38.862l41.465-72.564 20.571 72h51.429z" fill="#92563a"/><path d="m224.47 336.47a23.292 23.292 0 0 0 -33.879 31.945l23.056 25.938 34.353-34.353z" fill="#ffb531"/><path d="m308.343 317.372-36.343 66.628-24-24-34.353 34.353 7.222 8.125c7.516 8.454 16.955 15.215 27.748 18.6a61.279 61.279 0 0 0 72.7-29.248l28.106-52.2a23.364 23.364 0 0 0 -8.551-31.112 23.363 23.363 0 0 0 -32.529 8.854z" fill="#fec9a3"/><path d="m168 232a16 16 0 0 0 0 32h8v-32z" fill="#fec9a3"/><path d="m48 240h16v16h-16z"/><path d="m48 272h16v64h-16z"/><path d="m472 16h-16v26.824a79.322 79.322 0 0 0 -80 0v-26.824h-16v38.964a80 80 0 1 0 112 0zm8 96a64 64 0 1 1 -64-64 64.073 64.073 0 0 1 64 64z"/><path d="m415.844 101.883-27.044-20.283-9.6 12.8 32 24a7.994 7.994 0 0 0 9.8-.152l40-32-10-12.494z"/><path d="m200 240h16v16h-16z"/><path d="m485.477 452.7-14.41-9.606-21.837-92.844a59.562 59.562 0 0 0 -77.542-42.973l19.343-58.031a19.233 19.233 0 0 0 -18.231-25.246h-36.96a23.873 23.873 0 0 0 -22.711 16.43l-23.414 70.254a18.994 18.994 0 0 0 3.263 18.149l-9.062 16.614-8.373-12.072a60.683 60.683 0 0 0 -43.427-25.843 31.935 31.935 0 0 0 15.884-27.532v-5.754l9.941-2.484a8 8 0 0 0 5.649-10.293l-13.175-39.526a27.971 27.971 0 0 0 -10.415-53.943h-48a48.025 48.025 0 0 0 -47.825 44.546 31.646 31.646 0 0 0 -16.175-4.546h-32v-41.474a24 24 0 1 0 -16 0v41.474h-32a32.036 32.036 0 0 0 -32 32v232a23.941 23.941 0 0 0 46.526 8h50.949a23.94 23.94 0 0 0 46.525-8v-142.5c3.087 9.884 5.777 17.579 7.118 21.3a60.423 60.423 0 0 0 7.128 50.356l35.906 55.418a85.909 85.909 0 0 0 62.43 38.817h.067.011a90.813 90.813 0 0 0 9.9.605 86.637 86.637 0 0 0 74.94-43.469l32.019-56.062 15.344 53.73c.006.021.021.036.027.057l11.419 39.948a8 8 0 0 0 7.691 5.8h48.367a23.633 23.633 0 0 0 13.11-43.3zm-437.477 19.3a8 8 0 0 1 -16 0v-24a8 8 0 0 1 16 0zm32-8h-16v-16a24.027 24.027 0 0 0 -24-24 23.731 23.731 0 0 0 -8 1.474v-185.474a16.016 16.016 0 0 1 16-16h32zm8-312a8 8 0 1 1 8-8 8.011 8.011 0 0 1 -8 8zm56 320a8 8 0 0 1 -16 0v-24a8 8 0 0 1 16 0zm0-224v177.474a23.731 23.731 0 0 0 -8-1.474 24.027 24.027 0 0 0 -24 24v16h-16v-240h32a16.016 16.016 0 0 1 16 16zm184.316-2.539a7.922 7.922 0 0 1 7.524-5.461h36.96a3.151 3.151 0 0 1 2.59 1.352 3.1 3.1 0 0 1 .461 2.836l-21.861 65.587a31.192 31.192 0 0 0 -45.429-5.033zm-49.293 142.371 36.344-66.632a15.364 15.364 0 0 1 27.016 14.641l-28.106 52.195a53.618 53.618 0 0 1 -63.261 25.41c-8.8-2.761-17.157-8.394-24.164-16.289l-2.211-2.484 23.359-23.361 18.344 18.344a8 8 0 0 0 12.679-1.824zm-65.031-5.132-17.422-19.6a15.294 15.294 0 0 1 22.242-20.977l17.876 17.877zm48.4-40.215 12.957 18.682-5.246 9.619-39.973-39.969a30.94 30.94 0 0 0 -11.5-7.206c.411-.063.811-.171 1.225-.223a44.959 44.959 0 0 1 42.532 19.092zm-102.392-126.485a32.036 32.036 0 0 1 32-32h48a12 12 0 0 1 0 24h-56a7.993 7.993 0 0 0 -6.246 3l-10.454 13.071a23.713 23.713 0 0 0 -7.243 1.386zm2.037 55.16c1.918.495 13.963.84 13.963.84v-16h-8a7.923 7.923 0 0 1 -7.8-7.022l-.011-1.9a7.926 7.926 0 0 1 7.811-7.078h8l11.844-16h46.39l11.446 34.336-7.621 1.9a8 8 0 0 0 -6.059 7.764v12a16.016 16.016 0 0 1 -16 16h-32v16h17.662a62.287 62.287 0 0 0 -8.928 4.617 61.014 61.014 0 0 0 -15.525 14.263c-4.957-15.18-11.79-38.321-15.172-59.72zm106.647 207.414a69.833 69.833 0 0 1 -45.09-30.687l-35.9-55.41a44.863 44.863 0 0 1 -7.182-24.778 30.981 30.981 0 0 0 4.1 6.031l30.282 34.059c8.929 10.059 19.765 17.293 31.332 20.926a68.665 68.665 0 0 0 44.919-1.149zm149.91-38.574-18.9-66.195a8 8 0 0 0 -14.636-1.774l-41.434 72.547a70.612 70.612 0 0 1 -58.055 35.356l29.6-67.226a68.237 68.237 0 0 0 13.2-17.083l28.106-52.195a31.25 31.25 0 0 0 3.365-10.46 43.831 43.831 0 0 1 73.818 20.94l20.242 86.09zm53.773 40h-42.332l-6.859-24h38.4l15.024 10.016a7.633 7.633 0 0 1 -4.233 13.984z"/></g></svg>