<svg id="Capa_1" enable-background="new 0 0 512 512" height="512" viewBox="0 0 512 512" width="512" xmlns="http://www.w3.org/2000/svg"><g><g><g><path d="m160.477 136.626c-4.139 0-7.493-3.354-7.493-7.493v-121.64c0-4.139 3.354-7.493 7.493-7.493s7.493 3.354 7.493 7.493v121.639c0 4.139-3.354 7.494-7.493 7.494z" fill="#756e78"/></g><g><path d="m240.438 136.626c-4.139 0-7.493-3.354-7.493-7.493v-121.64c0-4.139 3.354-7.493 7.493-7.493s7.493 3.354 7.493 7.493v121.639c0 4.139-3.354 7.494-7.493 7.494z" fill="#756e78"/></g></g><g><g><circle cx="130.917" cy="488.098" fill="#756e78" r="23.902"/></g><g><path d="m136.949 464.964c.501 1.927.769 3.948.769 6.031 0 13.201-10.702 23.902-23.902 23.902-2.084 0-4.105-.268-6.031-.769 2.672 10.282 12.015 17.872 23.133 17.872 13.201 0 23.902-10.701 23.902-23.902 0-11.118-7.59-20.461-17.871-23.134z" fill="#665e66"/></g><g><circle cx="269.997" cy="488.098" fill="#756e78" r="23.902"/></g><g><path d="m276.029 464.964c.501 1.927.769 3.948.769 6.031 0 13.201-10.702 23.902-23.902 23.902-2.084 0-4.105-.268-6.031-.769 2.672 10.282 12.015 17.872 23.132 17.872 13.201 0 23.902-10.701 23.902-23.902.001-11.118-7.589-20.461-17.87-23.134z" fill="#665e66"/></g></g><g><path d="m262.054 36.014h-123.193c-3.78 0-6.844-3.064-6.844-6.844v-22.326c0-3.78 3.064-6.844 6.844-6.844h123.193c3.78 0 6.844 3.064 6.844 6.844v22.326c0 3.78-3.064 6.844-6.844 6.844z" fill="#756e78"/></g><g><path d="m262.06 0h-12.935v9.403c0 3.776-3.061 6.838-6.838 6.838h-110.27v12.936c0 3.776 3.061 6.838 6.838 6.838h123.205c3.776 0 6.838-3.061 6.838-6.838v-22.339c0-3.777-3.062-6.838-6.838-6.838z" fill="#665e66"/></g><g><path d="m285.01 472.544h-169.105c-25.934 0-46.958-21.024-46.958-46.957v-251.888c0-25.934 21.024-46.957 46.958-46.957h169.105c25.934 0 46.957 21.024 46.957 46.957v251.888c0 25.933-21.023 46.957-46.957 46.957z" fill="#ffe07d"/></g><g><path d="m285.051 126.741h-8.496v243.473c0 25.911-21.005 46.916-46.916 46.916h-160.691v8.496c0 25.911 21.005 46.916 46.916 46.916h169.187c25.911 0 46.916-21.005 46.916-46.916v-251.97c0-25.909-21.005-46.915-46.916-46.915z" fill="#ffd064"/></g><g><path d="m442.463 445.126-2.288-6.96c-7.313-22.248-21.031-41.842-39.436-56.324l-46.739-36.778-25.85 25.85 36.778 46.739c14.482 18.404 34.076 32.123 56.324 39.436l6.96 2.288c8.798 2.892 17.143-5.454 14.251-14.251z" fill="#bc95e2"/></g><g><path d="m442.47 445.145-2.304-7.009c-7.306-22.229-21.013-41.805-39.401-56.274l-46.764-36.797-16.74 16.74 44.395 34.934c18.388 14.469 32.095 34.046 39.401 56.274l1.479 4.499 5.695 1.872c8.789 2.888 17.127-5.45 14.239-14.239z" fill="#ac80dd"/></g><g><circle cx="278.547" cy="295.461" fill="#d3effb" r="110.942"/></g><g><path d="m247.806 188.85c17.467 5.019 33.945 14.403 47.706 28.164 43.325 43.325 43.326 113.57 0 156.895-13.761 13.761-30.239 23.144-47.706 28.164 37.527 10.784 79.625 1.401 109.189-28.164 43.325-43.325 43.325-113.57 0-156.895-29.565-29.565-71.662-38.948-109.189-28.164z" fill="#b1e4f9"/></g><g><path d="m278.547 413.897c-31.634 0-61.377-12.32-83.747-34.689-22.369-22.37-34.688-52.112-34.688-83.747 0-31.634 12.319-61.376 34.688-83.746 46.181-46.177 121.317-46.175 167.494 0 22.369 22.37 34.688 52.112 34.688 83.746 0 31.635-12.319 61.377-34.688 83.747-22.37 22.369-52.111 34.689-83.747 34.689zm0-221.835c-26.493 0-52.979 10.081-73.149 30.251-40.335 40.334-40.335 105.963 0 146.297 19.539 19.54 45.517 30.301 73.149 30.301s53.61-10.761 73.149-30.301c40.335-40.334 40.335-105.963 0-146.297-20.164-20.165-46.66-30.251-73.149-30.251z" fill="#ac80dd"/></g><g><g><circle cx="278.547" cy="353.074" fill="#5766cb" r="6.725"/></g><g><g><path d="m278.547 333.789c-4.139 0-7.493-3.354-7.493-7.493v-29.567c0-4.139 3.354-7.493 7.493-7.493 5.752 0 11.104-2.301 15.071-6.479 3.963-4.175 5.981-9.651 5.682-15.418-.56-10.807-9.486-19.443-20.319-19.661-.142-.002-.286-.004-.427-.004-10.345 0-19.154 7.614-20.586 17.873-.134.959-.201 1.938-.201 2.909 0 4.139-3.354 7.493-7.493 7.493s-7.493-3.354-7.493-7.493c0-1.66.116-3.335.344-4.978 2.467-17.673 17.628-30.79 35.426-30.79.245 0 .488.002.733.008 18.652.375 34.019 15.251 34.985 33.868.514 9.912-2.959 19.329-9.781 26.514-4.981 5.245-11.458 8.834-18.446 10.343v22.876c-.001 4.138-3.356 7.492-7.495 7.492z" fill="#5766cb"/></g></g></g></g></svg>